<?xml version="1.0" encoding="utf-8"?>
<svg viewBox="142.278 154.685 197.822 42.735" width="197.822" height="42.735" xmlns="http://www.w3.org/2000/svg" xmlns:xlink="http://www.w3.org/1999/xlink" xmlns:bx="https://boxy-svg.com">
  <defs>
    <linearGradient id="Безымянный_градиент_6" x1="250.41" y1="-315.39" x2="346.76" y2="-315.39" gradientTransform="matrix(0.266764, -0.153334, 0.153334, 0.266764, 129.552063, 320.660553)" gradientUnits="userSpaceOnUse">
      <stop offset="0" stop-color="#2980f3"/>
      <stop offset="1" stop-color="#2652d9"/>
    </linearGradient>
    <linearGradient id="Безымянный_градиент_6-2" x1="268.19" y1="-355.21" x2="332.81" y2="-355.21" gradientTransform="matrix(0.082081, -0.04718, 0.04718, 0.082081, 130.96225, 198.701477)" xlink:href="#Безымянный_градиент_6"/>
    <linearGradient id="Безымянный_градиент_6-3" x1="286.93" y1="-392.73" x2="320.28" y2="-392.73" gradientTransform="matrix(0.082081, -0.04718, 0.04718, 0.082081, 130.96225, 198.701477)" xlink:href="#Безымянный_градиент_6"/>
    <linearGradient id="Безымянный_градиент_6-4" x1="8366.58" y1="2144.55" x2="8266.31" y2="2144.55" gradientTransform="matrix(-0.266764, 0.153334, -0.153334, -0.266764, 2714.896973, -540.927185)" xlink:href="#Безымянный_градиент_6"/>
    <linearGradient id="Безымянный_градиент_6-5" x1="8352.46" y1="2103.86" x2="8283.62" y2="2103.86" gradientTransform="matrix(-0.266764, 0.153334, -0.153334, -0.266764, 2714.896973, -540.927185)" xlink:href="#Безымянный_градиент_6"/>
    <linearGradient id="Безымянный_градиент_6-6" x1="8338.52" y1="2064.09" x2="8300.28" y2="2064.09" gradientTransform="matrix(-0.266764, 0.153334, -0.153334, -0.266764, 2714.896973, -540.927185)" xlink:href="#Безымянный_градиент_6"/>
  </defs>
  <path class="cls-2" d="M 171.518 185.614 L 174.537 188.565 C 174.718 188.748 174.718 189.043 174.537 189.226 C 174.483 189.278 174.417 189.317 174.346 189.34 L 147.072 197.42 L 143.281 193.709 L 171.518 185.614 Z" style="fill: url(#Безымянный_градиент_6);"/>
  <path class="cls-3" d="M 161.127 176.189 L 164.158 179.186 C 164.338 179.366 164.338 179.658 164.158 179.839 C 164.101 179.897 164.028 179.94 163.949 179.962 L 146.103 184.909 L 142.371 181.217 L 161.127 176.189 Z" style="fill: url(#Безымянный_градиент_6-2);"/>
  <path class="cls-4" d="M 151.604 167.131 L 154.355 169.9 C 154.536 170.082 154.536 170.376 154.355 170.559 C 154.294 170.618 154.219 170.66 154.137 170.682 L 145.663 172.888 L 142.278 169.463 L 151.604 167.131 Z" style="fill: url(#Безымянный_градиент_6-3);"/>
  <path class="cls-5" d="M 152.583 168.297 L 146.801 162.515 C 146.621 162.335 146.621 162.043 146.801 161.863 C 146.863 161.802 146.939 161.759 147.023 161.737 L 175.281 154.685 L 181.435 160.839 L 152.583 168.297 Z" style="fill: url(#Безымянный_градиент_6-4);"/>
  <path class="cls-6" d="M 162.804 177.989 L 157.854 172.968 C 157.671 172.786 157.671 172.491 157.854 172.309 C 157.913 172.251 157.986 172.21 158.066 172.189 L 176.706 167.235 L 182.103 172.632 L 162.804 177.989 Z" style="fill: url(#Безымянный_градиент_6-5);"/>
  <path class="cls-7" d="M 173.577 187.762 L 168.244 182.386 C 168.062 182.205 168.062 181.909 168.244 181.728 C 168.3 181.672 168.369 181.632 168.444 181.611 L 177.386 179.011 L 183.281 184.891 L 173.577 187.762 Z" style="fill: url(#Безымянный_градиент_6-6);"/>
  <g class="cls-8" transform="matrix(0.506456, 0, 0, 0.506456, 91.038475, 125.590797)" style="isolation: isolate;" bx:origin="1.054474 1.513492">
    <g class="cls-8" style="isolation: isolate;">
      <path class="cls-9" d="M216.77,82.52l.17,1.6a5.78,5.78,0,0,1-1.26.17q-3.56,0-3.55-4.32V65.47a13.19,13.19,0,0,0-2.72-.31,3.57,3.57,0,0,0-2.56.74,3,3,0,0,0-.74,2.2v1.74h3.69v1.65h-3.69V84h-2V71.49H202V69.84h2.13V68.13q0-4.68,5-4.68a17.89,17.89,0,0,1,4.93.76V80a3.76,3.76,0,0,0,.42,2,1.6,1.6,0,0,0,1.45.65A6.35,6.35,0,0,0,216.77,82.52Z" style="fill: rgb(41, 128, 243);"/>
      <path class="cls-9" d="M224.5,84.29a6,6,0,0,1-3.92-1.14,3.71,3.71,0,0,1-1.37-3,3.62,3.62,0,0,1,1.51-3.2,6.9,6.9,0,0,1,3.92-1.08,15.76,15.76,0,0,1,3.39.39V74.63q0-3.42-3.67-3.42a9.34,9.34,0,0,0-3.78.73l-.45-1.63a11,11,0,0,1,4.37-.81,5.7,5.7,0,0,1,4.09,1.33A5.18,5.18,0,0,1,230,74.71V83A10.56,10.56,0,0,1,224.5,84.29ZM228,81.93V77.68a15.8,15.8,0,0,0-3.19-.39q-3.68,0-3.67,2.8a2.28,2.28,0,0,0,.91,2,4.36,4.36,0,0,0,2.59.67A6.14,6.14,0,0,0,228,81.93Z" style="fill: rgb(41, 128, 243);"/>
      <path class="cls-9" d="M234.75,84v-13a12.91,12.91,0,0,1,5.94-1.43,5.8,5.8,0,0,1,4.18,1.36,5,5,0,0,1,1.42,3.79V84h-2V74.77a3.24,3.24,0,0,0-3.64-3.56,8.39,8.39,0,0,0-4,1V84Z" style="fill: rgb(41, 128, 243);"/>
      <path class="cls-9" d="M260.37,84l-4.31-6.27a31.73,31.73,0,0,1-2.91,1.85V84h-2V63.82l2-.11V77.59a18.32,18.32,0,0,0,4.55-3.52,8.57,8.57,0,0,0,1.91-4.23h1.94a10.57,10.57,0,0,1-4.06,6.75L262.61,84Z" style="fill: rgb(41, 128, 243);"/>
      <path class="cls-9" d="M273.28,71.85a11.75,11.75,0,0,0-3.59-.64c-2,0-3,.75-3,2.24a2.25,2.25,0,0,0,.21,1,1.67,1.67,0,0,0,.73.71,7.14,7.14,0,0,0,.92.46,10.82,10.82,0,0,0,1.22.42,11.23,11.23,0,0,1,3.58,1.66,3.08,3.08,0,0,1,1.12,2.57,3.43,3.43,0,0,1-1.43,3,6.38,6.38,0,0,1-3.75,1,13.48,13.48,0,0,1-2.62-.27,10.79,10.79,0,0,1-2.05-.57l.33-1.68a12.34,12.34,0,0,0,4.31.81,4.21,4.21,0,0,0,2.38-.59,1.9,1.9,0,0,0,.87-1.68,1.74,1.74,0,0,0-.84-1.55,11.85,11.85,0,0,0-2.88-1.17,8.39,8.39,0,0,1-3-1.49,3.26,3.26,0,0,1-1.06-2.62,3.58,3.58,0,0,1,1.27-3,5.63,5.63,0,0,1,3.6-1,10.59,10.59,0,0,1,4,.7Z" style="fill: rgb(41, 128, 243);"/>
      <path class="cls-9" d="M283.41,84.29a5.77,5.77,0,0,1-4.66-2,8.08,8.08,0,0,1-1.69-5.38,8.05,8.05,0,0,1,1.69-5.37,6.44,6.44,0,0,1,9.37,0,8.1,8.1,0,0,1,1.68,5.37,8.13,8.13,0,0,1-1.68,5.38A5.81,5.81,0,0,1,283.41,84.29Zm0-1.71a3.8,3.8,0,0,0,3.28-1.51,7,7,0,0,0,1.09-4.18,7,7,0,0,0-1.09-4.17,3.78,3.78,0,0,0-3.28-1.51,3.73,3.73,0,0,0-3.23,1.53,8.33,8.33,0,0,0,0,8.31A3.73,3.73,0,0,0,283.41,82.58Z" style="fill: rgb(41, 128, 243);"/>
      <path class="cls-9" d="M299,84.29q-5.3,0-5.29-5V69.84h2v9.38q0,3.36,3.36,3.36a8.3,8.3,0,0,0,4-1V69.84h2v13A13.15,13.15,0,0,1,299,84.29Z" style="fill: rgb(41, 128, 243);"/>
    </g>
    <g class="cls-8" style="isolation: isolate;">
      <path class="cls-9" d="M316,69.5a9.14,9.14,0,0,1,1.56.14l-.28,1.71a4.1,4.1,0,0,0-1.17-.14,8.09,8.09,0,0,0-4,1V84h-2v-13A11.75,11.75,0,0,1,316,69.5Z" style="fill: rgb(41, 128, 243);"/>
    </g>
    <g class="cls-8" style="isolation: isolate;">
      <path class="cls-9" d="M330.12,70.34l-.42,1.6a9.47,9.47,0,0,0-3.5-.73,4.35,4.35,0,0,0-3.6,1.54A6.56,6.56,0,0,0,321.35,77a5.93,5.93,0,0,0,1.32,4.17,5,5,0,0,0,3.84,1.43,7.68,7.68,0,0,0,3.36-.81l.39,1.62a8.12,8.12,0,0,1-3.84.9,6.94,6.94,0,0,1-5.23-1.91A7.36,7.36,0,0,1,319.34,77a8,8,0,0,1,1.78-5.46,6.21,6.21,0,0,1,5-2A9.41,9.41,0,0,1,330.12,70.34Z" style="fill: rgb(41, 128, 243);"/>
    </g>
    <g class="cls-8" style="isolation: isolate;">
      <path class="cls-9" d="M344.79,75.63a14.21,14.21,0,0,1-.09,1.66H334.62a5.57,5.57,0,0,0,1.53,4A5.42,5.42,0,0,0,340,82.58a10.8,10.8,0,0,0,4.23-.93l.36,1.66a11.11,11.11,0,0,1-4.73,1,7.21,7.21,0,0,1-5.31-1.94,7.39,7.39,0,0,1-1.94-5.48,7.86,7.86,0,0,1,1.75-5.32,5.87,5.87,0,0,1,4.72-2,5.28,5.28,0,0,1,4.2,1.74A6.48,6.48,0,0,1,344.79,75.63Zm-2,.26a3.75,3.75,0,0,0,0-.54,4.59,4.59,0,0,0-1-3,3.35,3.35,0,0,0-2.82-1.21A3.93,3.93,0,0,0,336,72.46a5.71,5.71,0,0,0-1.35,3.43Z" style="fill: rgb(41, 128, 243);"/>
    </g>
  </g>
  <g class="cls-8" transform="matrix(0.506456, 0, 0, 0.506456, 90.873077, 125.092201)" style="isolation: isolate;" bx:origin="0.515 0.020737">
    <g class="cls-8" style="isolation: isolate;">
      <path class="cls-10" d="M236.43,95.8v30.3h-5.67V111.65a44,44,0,0,1,.31-5.54,126.93,126.93,0,0,1-8.18,14.75H218A126.51,126.51,0,0,1,209.77,106a44.08,44.08,0,0,1,.35,5.63V126.1h-5.71V95.8h6.36a123.27,123.27,0,0,0,9.69,18.87,122.34,122.34,0,0,0,9.61-18.87Z" style="fill: rgb(43, 43, 43);"/>
      <path class="cls-10" d="M242.88,100.13a3.28,3.28,0,0,1-.91-2.42,3.32,3.32,0,0,1,.91-2.43,3.49,3.49,0,0,1,2.56-.9,3.43,3.43,0,0,1,2.51.9,3.32,3.32,0,0,1,.9,2.43,3.28,3.28,0,0,1-.9,2.42,3.39,3.39,0,0,1-2.51.91A3.45,3.45,0,0,1,242.88,100.13Zm5.54,26h-6V104h6Z" style="fill: rgb(43, 43, 43);"/>
      <path class="cls-10" d="M267.68,109.57a22.29,22.29,0,0,0-6-1.17c-2,0-3,.59-3,1.77a1.51,1.51,0,0,0,.73,1.37,13.43,13.43,0,0,0,2.86,1.06,14.18,14.18,0,0,1,5.65,2.62,5.67,5.67,0,0,1,1.7,4.43,6,6,0,0,1-2.48,5.17,11,11,0,0,1-6.6,1.8,19.64,19.64,0,0,1-7.84-1.43l.82-4.89a19.23,19.23,0,0,0,6.89,1.39,5.18,5.18,0,0,0,2.44-.5,1.54,1.54,0,0,0,.93-1.41,1.6,1.6,0,0,0-.89-1.49,21.26,21.26,0,0,0-3.74-1.32,10.52,10.52,0,0,1-4.76-2.38,5.7,5.7,0,0,1-1.6-4.29,6.08,6.08,0,0,1,2.23-5.06,9.73,9.73,0,0,1,6.21-1.78,19.17,19.17,0,0,1,7.14,1.26Z" style="fill: rgb(43, 43, 43);"/>
      <path class="cls-10" d="M286.72,109.57a22.3,22.3,0,0,0-6-1.17q-3,0-3,1.77a1.51,1.51,0,0,0,.73,1.37,13.66,13.66,0,0,0,2.86,1.06,14.11,14.11,0,0,1,5.65,2.62,5.64,5.64,0,0,1,1.71,4.43,6,6,0,0,1-2.49,5.17,11,11,0,0,1-6.6,1.8,19.59,19.59,0,0,1-7.83-1.43l.82-4.89a19.18,19.18,0,0,0,6.88,1.39,5.18,5.18,0,0,0,2.44-.5,1.54,1.54,0,0,0,.93-1.41,1.6,1.6,0,0,0-.88-1.49,21.47,21.47,0,0,0-3.75-1.32,10.57,10.57,0,0,1-4.76-2.38,5.74,5.74,0,0,1-1.6-4.29,6.08,6.08,0,0,1,2.23-5.06,9.76,9.76,0,0,1,6.21-1.78,19.09,19.09,0,0,1,7.14,1.26Z" style="fill: rgb(43, 43, 43);"/>
      <path class="cls-10" d="M292.74,100.13a3.24,3.24,0,0,1-.91-2.42,3.28,3.28,0,0,1,.91-2.43,3.45,3.45,0,0,1,2.55-.9,3.4,3.4,0,0,1,2.51.9,3.28,3.28,0,0,1,.91,2.43,3.24,3.24,0,0,1-.91,2.42,3.36,3.36,0,0,1-2.51.91A3.41,3.41,0,0,1,292.74,100.13Zm5.54,26h-6V104h6Z" style="fill: rgb(43, 43, 43);"/>
      <path class="cls-10" d="M321.52,123.46a11.4,11.4,0,0,1-15.78,0,13.57,13.57,0,0,1,0-16.82,11.43,11.43,0,0,1,15.78,0,12,12,0,0,1,2.9,8.4A12,12,0,0,1,321.52,123.46Zm-11.36-3.55a4,4,0,0,0,3.48,1.78,3.94,3.94,0,0,0,3.46-1.78,8.54,8.54,0,0,0,1.22-4.89,8.45,8.45,0,0,0-1.22-4.87,3.94,3.94,0,0,0-3.46-1.75,4,4,0,0,0-3.48,1.77,10.18,10.18,0,0,0,0,9.74Z" style="fill: rgb(43, 43, 43);"/>
      <path class="cls-10" d="M328.92,126.1V105.37a24.62,24.62,0,0,1,9.78-1.91q4.77,0,7.36,2.3a8.32,8.32,0,0,1,2.6,6.58V126.1h-6V112.77q0-4.36-4-4.37a9,9,0,0,0-3.81.78V126.1Z" style="fill: rgb(43, 43, 43);"/>
    </g>
    <g class="cls-8" style="isolation: isolate;">
      <path class="cls-10" d="M353.9,111.3q0-7.18,3.44-11.6t10.06-4.42a19.07,19.07,0,0,1,7.4,1.52L374,99.48a19.87,19.87,0,0,0-6.58-1.38q-5.24,0-7.77,3.66a16.38,16.38,0,0,0-2.53,9.54q0,5.81,2.64,9.15t7.87,3.36a16.71,16.71,0,0,0,6.71-1.56l.65,2.68a16,16,0,0,1-7.44,1.69q-6.58,0-10.13-4.13T353.9,111.3Z" style="fill: rgb(43, 43, 43);"/>
    </g>
    <g class="cls-8" style="isolation: isolate;">
      <path class="cls-10" d="M388.18,126.62A8.91,8.91,0,0,1,381,123.5a12.5,12.5,0,0,1-2.62-8.31,12.54,12.54,0,0,1,2.62-8.31,10,10,0,0,1,14.48,0,12.58,12.58,0,0,1,2.6,8.31,12.54,12.54,0,0,1-2.6,8.31A8.94,8.94,0,0,1,388.18,126.62Zm0-2.64a5.82,5.82,0,0,0,5.06-2.34,10.79,10.79,0,0,0,1.69-6.45,10.81,10.81,0,0,0-1.69-6.45,5.84,5.84,0,0,0-5.06-2.33,5.77,5.77,0,0,0-5,2.36,10.73,10.73,0,0,0-1.71,6.42,10.74,10.74,0,0,0,1.71,6.43A5.8,5.8,0,0,0,388.18,124Z" style="fill: rgb(43, 43, 43);"/>
      <path class="cls-10" d="M404.28,126.1V106a19.79,19.79,0,0,1,9.17-2.21q4.29,0,6.47,2.1a7.73,7.73,0,0,1,2.19,5.86V126.1h-3V111.9a5.54,5.54,0,0,0-1.41-4,5.61,5.61,0,0,0-4.22-1.45,12.86,12.86,0,0,0-6.14,1.47V126.1Z" style="fill: rgb(43, 43, 43);"/>
      <path class="cls-10" d="M439.29,123.63l.22,2.56a12.68,12.68,0,0,1-3.25.43q-6.36,0-6.36-6.92V106.84h-3.29v-2.55h3.29V99.14l3-.22v5.37h5.88v2.55h-5.88V119.7a4.73,4.73,0,0,0,.93,3.28,3.62,3.62,0,0,0,2.79,1A9,9,0,0,0,439.29,123.63Z" style="fill: rgb(43, 43, 43);"/>
    </g>
    <g class="cls-8" style="isolation: isolate;">
      <path class="cls-10" d="M453.53,103.77A14,14,0,0,1,456,104l-.43,2.64a6.45,6.45,0,0,0-1.82-.21,12.46,12.46,0,0,0-6.23,1.47V126.1h-3V106A18.05,18.05,0,0,1,453.53,103.77Z" style="fill: rgb(43, 43, 43);"/>
    </g>
    <g class="cls-8" style="isolation: isolate;">
      <path class="cls-10" d="M468.6,126.62a8.91,8.91,0,0,1-7.21-3.12,12.5,12.5,0,0,1-2.62-8.31,12.54,12.54,0,0,1,2.62-8.31,10,10,0,0,1,14.48,0,12.58,12.58,0,0,1,2.6,8.31,12.54,12.54,0,0,1-2.6,8.31A8.94,8.94,0,0,1,468.6,126.62Zm0-2.64a5.82,5.82,0,0,0,5.06-2.34,10.79,10.79,0,0,0,1.69-6.45,10.81,10.81,0,0,0-1.69-6.45,5.84,5.84,0,0,0-5.06-2.33,5.77,5.77,0,0,0-5,2.36,10.73,10.73,0,0,0-1.71,6.42,10.74,10.74,0,0,0,1.71,6.43A5.8,5.8,0,0,0,468.6,124Z" style="fill: rgb(43, 43, 43);"/>
      <path class="cls-10" d="M487.68,119.91a5.9,5.9,0,0,0,.65,3.12,2.5,2.5,0,0,0,2.25,1,10,10,0,0,0,1.26-.13l.26,2.47a9,9,0,0,1-2,.26q-5.49,0-5.5-6.67V95l3-.21Z" style="fill: rgb(43, 43, 43);"/>
    </g>
  </g>
</svg>